<svg width="1280" height="282" viewBox="0 0 1280 282" fill="none" xmlns="http://www.w3.org/2000/svg">
<path fill-rule="evenodd" clip-rule="evenodd" d="M0 166.636L53.3333 134.591C106.667 102.545 213.333 38.4545 320 32.0455C426.667 25.6364 533.333 76.9091 640 70.5C746.667 64.0909 853.333 0 960 0C1066.67 0 1173.33 64.0909 1226.67 96.1364L1280 128.182V282H1226.67C1173.33 282 1066.67 282 960 282C853.333 282 746.667 282 640 282C533.333 282 426.667 282 320 282C213.333 282 106.667 282 53.3333 282H0V166.636Z" fill="#FEF7E5"/>
</svg>
