<svg width="204" height="56" viewBox="0 0 204 56" fill="none" xmlns="http://www.w3.org/2000/svg">
<path d="M20.0285 42.7391L17.3413 45.6461V55.2578H0.5V0H17.3413V26.3609L29.0436 14.5226H48.9436L32.1023 32.1749L50.2934 55.2578H29.9476L20.0285 42.7391Z" fill="#FEF7E5"/>
<path d="M82.8739 13.7805V28.6742C81.5365 28.4763 80.2858 28.3773 79.1465 28.3773C73.3759 28.3773 70.503 31.3091 70.503 37.1602V55.2578H53.6616V14.5227H69.6857V18.9141C72.6577 15.4875 77.0537 13.7805 82.8739 13.7805Z" fill="#FEF7E5"/>
<path d="M130.438 38.793H102.105C102.7 40.3269 103.69 41.5145 105.09 42.3309C106.477 43.1473 108.223 43.5555 110.303 43.5555C112.086 43.5555 113.597 43.3329 114.811 42.8875C116.024 42.4422 117.362 41.6753 118.798 40.5743L127.59 49.4314C123.615 53.7981 117.671 55.9876 109.771 55.9876C104.854 55.9876 100.533 55.0846 96.8052 53.2662C93.0778 51.4601 90.1925 48.9366 88.1616 45.708C86.1183 42.4793 85.1029 38.8549 85.1029 34.8345C85.1029 30.7647 86.106 27.1279 88.1244 23.924C90.1429 20.7201 92.892 18.2213 96.3965 16.44C99.901 14.6587 103.839 13.7557 108.21 13.7557C112.334 13.7557 116.098 14.5721 119.504 16.2174C122.909 17.8502 125.621 20.2624 127.627 23.4416C129.646 26.6207 130.649 30.4184 130.649 34.8345C130.661 35.0943 130.587 36.4179 130.438 38.793ZM104.049 26.6578C102.91 27.598 102.155 28.9463 101.808 30.6781H114.922C114.575 28.9958 113.832 27.6598 112.681 26.6949C111.541 25.7301 110.092 25.2476 108.359 25.2476C106.625 25.2476 105.189 25.7177 104.049 26.6578Z" fill="#FEF7E5"/>
<path d="M203.5 18.1347L190.597 55.2578H174.201L168.009 36.4179L161.595 55.2578H145.199L132.519 18.8027L146.983 14.5226L153.991 36.0468L161.298 14.5226H175.613L182.696 36.2695L190.002 14.5226L203.5 18.1347Z" fill="#FEF7E5"/>
</svg>
