<svg width="600" height="581" viewBox="0 0 600 581" fill="none" xmlns="http://www.w3.org/2000/svg">
<path fill-rule="evenodd" clip-rule="evenodd" d="M79.4929 551.769C2.37873 524.976 -56.6328 466.535 -105.663 401.978C-151.799 341.232 -176.162 270.87 -190.329 196.501C-206.046 113.995 -249.257 12.3584 -191.537 -48.8223C-131.532 -112.426 -21.409 -61.7027 65.9511 -75.1451C125.513 -84.3101 177.253 -114.413 237.606 -114.856C315.531 -115.429 398.96 -122.431 462.893 -78.0623C534.679 -28.244 601.168 50.1523 599.452 136.258C597.752 221.562 500.11 267.882 454.558 340.131C409.72 411.247 409.095 513.56 335.317 555.191C259.739 597.837 162.128 580.479 79.4929 551.769Z" fill="#FF0910"/>
</svg>
